<mxfile host="app.diagrams.net" agent="Mozilla/5.0 (Windows NT 10.0; Win64; x64) AppleWebKit/537.36 (KHTML, like Gecko) Chrome/130.0.0.0 Safari/537.36" version="24.8.4">
  <diagram id="R2lEEEUBdFMjLlhIrx00" name="Page-1">
    <mxGraphModel dx="1434" dy="780" grid="1" gridSize="10" guides="1" tooltips="1" connect="1" arrows="1" fold="1" page="1" pageScale="1" pageWidth="850" pageHeight="1100" math="0" shadow="0" extFonts="Permanent Marker^https://fonts.googleapis.com/css?family=Permanent+Marker">
      <root>
        <mxCell id="0" />
        <mxCell id="1" parent="0" />
        <mxCell id="9ntAHNHlALG6fC8blTvz-1" value="&lt;font style=&quot;font-size: 18px;&quot;&gt;Team&lt;/font&gt;" style="rounded=0;whiteSpace=wrap;html=1;" parent="1" vertex="1">
          <mxGeometry x="222.5" y="170" width="145" height="70" as="geometry" />
        </mxCell>
        <mxCell id="9ntAHNHlALG6fC8blTvz-2" value="&lt;font style=&quot;font-size: 18px;&quot;&gt;Venue&lt;/font&gt;" style="rounded=0;whiteSpace=wrap;html=1;" parent="1" vertex="1">
          <mxGeometry x="792.5" y="600" width="145" height="70" as="geometry" />
        </mxCell>
        <mxCell id="9ntAHNHlALG6fC8blTvz-3" value="&lt;font style=&quot;font-size: 18px;&quot;&gt;Event&lt;/font&gt;" style="rounded=0;whiteSpace=wrap;html=1;" parent="1" vertex="1">
          <mxGeometry x="200" y="600" width="145" height="70" as="geometry" />
        </mxCell>
        <mxCell id="9ntAHNHlALG6fC8blTvz-4" value="&lt;font style=&quot;font-size: 14px;&quot;&gt;Event_ID (PK)&lt;/font&gt;" style="ellipse;whiteSpace=wrap;html=1;" parent="1" vertex="1">
          <mxGeometry x="160" y="710" width="110" height="60" as="geometry" />
        </mxCell>
        <mxCell id="9ntAHNHlALG6fC8blTvz-5" value="&lt;font style=&quot;font-size: 14px;&quot;&gt;Team_ID (PK)&lt;/font&gt;" style="ellipse;whiteSpace=wrap;html=1;" parent="1" vertex="1">
          <mxGeometry x="132.5" y="80" width="110" height="60" as="geometry" />
        </mxCell>
        <mxCell id="9ntAHNHlALG6fC8blTvz-6" value="&lt;font style=&quot;font-size: 14px;&quot;&gt;Name&lt;/font&gt;" style="ellipse;whiteSpace=wrap;html=1;" parent="1" vertex="1">
          <mxGeometry x="100" y="250" width="110" height="60" as="geometry" />
        </mxCell>
        <mxCell id="9ntAHNHlALG6fC8blTvz-7" value="&lt;font style=&quot;font-size: 14px;&quot;&gt;Sport (FK)&lt;/font&gt;" style="ellipse;whiteSpace=wrap;html=1;" parent="1" vertex="1">
          <mxGeometry x="360" y="250" width="110" height="60" as="geometry" />
        </mxCell>
        <mxCell id="9ntAHNHlALG6fC8blTvz-8" value="&lt;span style=&quot;font-size: 18px;&quot;&gt;Sport&lt;/span&gt;" style="rounded=0;whiteSpace=wrap;html=1;" parent="1" vertex="1">
          <mxGeometry x="807.5" y="170" width="145" height="70" as="geometry" />
        </mxCell>
        <mxCell id="9ntAHNHlALG6fC8blTvz-9" value="&lt;font style=&quot;font-size: 14px;&quot;&gt;Name (PK)&lt;/font&gt;" style="ellipse;whiteSpace=wrap;html=1;" parent="1" vertex="1">
          <mxGeometry x="760" y="290" width="127.5" height="60" as="geometry" />
        </mxCell>
        <mxCell id="9ntAHNHlALG6fC8blTvz-11" value="&lt;font style=&quot;font-size: 14px;&quot;&gt;Name (PK)&lt;/font&gt;&lt;span style=&quot;color: rgba(0, 0, 0, 0); font-family: monospace; font-size: 0px; text-align: start; text-wrap-mode: nowrap;&quot;&gt;%3CmxGraphModel%3E%3Croot%3E%3CmxCell%20id%3D%220%22%2F%3E%3CmxCell%20id%3D%221%22%20parent%3D%220%22%2F%3E%3CmxCell%20id%3D%222%22%20value%3D%22%26lt%3Bfont%20style%3D%26quot%3Bfont-size%3A%2014px%3B%26quot%3B%26gt%3BTeam_ID%20(PK)%26lt%3B%2Ffont%26gt%3B%22%20style%3D%22ellipse%3BwhiteSpace%3Dwrap%3Bhtml%3D1%3B%22%20vertex%3D%221%22%20parent%3D%221%22%3E%3CmxGeometry%20x%3D%2290%22%20y%3D%2240%22%20width%3D%22110%22%20height%3D%2260%22%20as%3D%22geometry%22%2F%3E%3C%2FmxCell%3E%3C%2Froot%3E%3C%2FmxGraphModel%3E )&lt;/span&gt;" style="ellipse;whiteSpace=wrap;html=1;" parent="1" vertex="1">
          <mxGeometry x="700" y="510" width="110" height="60" as="geometry" />
        </mxCell>
        <mxCell id="9ntAHNHlALG6fC8blTvz-12" value="&lt;span style=&quot;font-size: 14px;&quot;&gt;Address (PK)&lt;/span&gt;" style="ellipse;whiteSpace=wrap;html=1;" parent="1" vertex="1">
          <mxGeometry x="862.5" y="500" width="110" height="60" as="geometry" />
        </mxCell>
        <mxCell id="9ntAHNHlALG6fC8blTvz-13" value="&lt;span style=&quot;font-size: 14px;&quot;&gt;City&lt;/span&gt;" style="ellipse;whiteSpace=wrap;html=1;" parent="1" vertex="1">
          <mxGeometry x="717.5" y="710" width="110" height="60" as="geometry" />
        </mxCell>
        <mxCell id="9ntAHNHlALG6fC8blTvz-15" value="&lt;span style=&quot;font-size: 14px;&quot;&gt;Counry&lt;/span&gt;" style="ellipse;whiteSpace=wrap;html=1;" parent="1" vertex="1">
          <mxGeometry x="872.5" y="710" width="110" height="60" as="geometry" />
        </mxCell>
        <mxCell id="9ntAHNHlALG6fC8blTvz-16" value="&lt;span style=&quot;font-size: 14px;&quot;&gt;Capacity&lt;/span&gt;" style="ellipse;whiteSpace=wrap;html=1;" parent="1" vertex="1">
          <mxGeometry x="992.5" y="565" width="110" height="60" as="geometry" />
        </mxCell>
        <mxCell id="9ntAHNHlALG6fC8blTvz-18" value="&lt;font style=&quot;font-size: 14px;&quot;&gt;Date&lt;/font&gt;" style="ellipse;whiteSpace=wrap;html=1;" parent="1" vertex="1">
          <mxGeometry x="60" y="620" width="110" height="60" as="geometry" />
        </mxCell>
        <mxCell id="9ntAHNHlALG6fC8blTvz-20" value="&lt;font style=&quot;font-size: 14px;&quot;&gt;Description&lt;/font&gt;" style="ellipse;whiteSpace=wrap;html=1;" parent="1" vertex="1">
          <mxGeometry x="130" y="510" width="110" height="60" as="geometry" />
        </mxCell>
        <mxCell id="9ntAHNHlALG6fC8blTvz-22" value="&lt;font style=&quot;font-size: 14px;&quot;&gt;Founding_Date&lt;/font&gt;" style="ellipse;whiteSpace=wrap;html=1;" parent="1" vertex="1">
          <mxGeometry x="282.5" y="80" width="120" height="60" as="geometry" />
        </mxCell>
        <mxCell id="9ntAHNHlALG6fC8blTvz-24" value="&lt;font style=&quot;font-size: 14px;&quot;&gt;Entrance_Fee&lt;/font&gt;" style="ellipse;whiteSpace=wrap;html=1;" parent="1" vertex="1">
          <mxGeometry x="315" y="510" width="110" height="60" as="geometry" />
        </mxCell>
        <mxCell id="9ntAHNHlALG6fC8blTvz-25" value="&lt;font style=&quot;font-size: 14px;&quot;&gt;plays&lt;/font&gt;" style="rhombus;whiteSpace=wrap;html=1;" parent="1" vertex="1">
          <mxGeometry x="540" y="165" width="88" height="80" as="geometry" />
        </mxCell>
        <mxCell id="9ntAHNHlALG6fC8blTvz-26" value="" style="endArrow=none;html=1;rounded=0;exitX=1;exitY=0.5;exitDx=0;exitDy=0;" parent="1" source="9ntAHNHlALG6fC8blTvz-1" edge="1">
          <mxGeometry width="50" height="50" relative="1" as="geometry">
            <mxPoint x="440" y="200" as="sourcePoint" />
            <mxPoint x="540" y="205" as="targetPoint" />
          </mxGeometry>
        </mxCell>
        <mxCell id="9ntAHNHlALG6fC8blTvz-27" value="" style="endArrow=none;html=1;rounded=0;exitX=1;exitY=0.5;exitDx=0;exitDy=0;entryX=0;entryY=0.5;entryDx=0;entryDy=0;" parent="1" source="9ntAHNHlALG6fC8blTvz-25" target="9ntAHNHlALG6fC8blTvz-8" edge="1">
          <mxGeometry width="50" height="50" relative="1" as="geometry">
            <mxPoint x="649.5" y="204.38" as="sourcePoint" />
            <mxPoint x="800" y="204" as="targetPoint" />
          </mxGeometry>
        </mxCell>
        <mxCell id="9ntAHNHlALG6fC8blTvz-28" value="&lt;font style=&quot;font-size: 14px;&quot;&gt;[1, 1]&lt;/font&gt;" style="text;html=1;align=center;verticalAlign=middle;resizable=0;points=[];autosize=1;strokeColor=none;fillColor=none;" parent="1" vertex="1">
          <mxGeometry x="375" y="170" width="50" height="30" as="geometry" />
        </mxCell>
        <mxCell id="9ntAHNHlALG6fC8blTvz-29" value="&lt;font style=&quot;font-size: 14px;&quot;&gt;[0, *]&lt;/font&gt;" style="text;html=1;align=center;verticalAlign=middle;resizable=0;points=[];autosize=1;strokeColor=none;fillColor=none;" parent="1" vertex="1">
          <mxGeometry x="750" y="170" width="50" height="30" as="geometry" />
        </mxCell>
        <mxCell id="9ntAHNHlALG6fC8blTvz-30" value="" style="endArrow=none;html=1;rounded=0;exitX=1;exitY=0.5;exitDx=0;exitDy=0;entryX=0;entryY=0.5;entryDx=0;entryDy=0;" parent="1" source="9ntAHNHlALG6fC8blTvz-3" target="9ntAHNHlALG6fC8blTvz-32" edge="1">
          <mxGeometry width="50" height="50" relative="1" as="geometry">
            <mxPoint x="345" y="644.38" as="sourcePoint" />
            <mxPoint x="520" y="610" as="targetPoint" />
          </mxGeometry>
        </mxCell>
        <mxCell id="9ntAHNHlALG6fC8blTvz-31" value="" style="endArrow=none;html=1;rounded=0;exitX=1;exitY=0.5;exitDx=0;exitDy=0;entryX=0;entryY=0.5;entryDx=0;entryDy=0;" parent="1" source="9ntAHNHlALG6fC8blTvz-32" target="9ntAHNHlALG6fC8blTvz-2" edge="1">
          <mxGeometry width="50" height="50" relative="1" as="geometry">
            <mxPoint x="610" y="584.37" as="sourcePoint" />
            <mxPoint x="782" y="584.37" as="targetPoint" />
          </mxGeometry>
        </mxCell>
        <mxCell id="9ntAHNHlALG6fC8blTvz-32" value="&lt;div&gt;&lt;span style=&quot;font-size: 14px; background-color: initial;&quot;&gt;&lt;br&gt;&lt;/span&gt;&lt;/div&gt;&lt;div&gt;&lt;span style=&quot;font-size: 14px; background-color: initial;&quot;&gt;takes place&amp;nbsp;&lt;/span&gt;&lt;/div&gt;&lt;div&gt;&lt;span style=&quot;font-size: 14px;&quot;&gt;at&lt;/span&gt;&lt;/div&gt;" style="rhombus;whiteSpace=wrap;html=1;" parent="1" vertex="1">
          <mxGeometry x="490" y="583.13" width="110" height="103.75" as="geometry" />
        </mxCell>
        <mxCell id="FBlnzUpI8ujvTvfXLXgQ-1" value="" style="endArrow=none;html=1;rounded=0;" edge="1" parent="1">
          <mxGeometry width="50" height="50" relative="1" as="geometry">
            <mxPoint x="188" y="570" as="sourcePoint" />
            <mxPoint x="222.5" y="600" as="targetPoint" />
          </mxGeometry>
        </mxCell>
        <mxCell id="FBlnzUpI8ujvTvfXLXgQ-2" value="" style="endArrow=none;html=1;rounded=0;exitX=0.25;exitY=1;exitDx=0;exitDy=0;entryX=0.5;entryY=0;entryDx=0;entryDy=0;" edge="1" parent="1" source="9ntAHNHlALG6fC8blTvz-3" target="9ntAHNHlALG6fC8blTvz-4">
          <mxGeometry width="50" height="50" relative="1" as="geometry">
            <mxPoint x="248" y="670" as="sourcePoint" />
            <mxPoint x="280" y="700" as="targetPoint" />
          </mxGeometry>
        </mxCell>
        <mxCell id="FBlnzUpI8ujvTvfXLXgQ-4" value="" style="endArrow=none;html=1;rounded=0;entryX=0;entryY=0.5;entryDx=0;entryDy=0;exitX=1;exitY=0.5;exitDx=0;exitDy=0;" edge="1" parent="1" source="9ntAHNHlALG6fC8blTvz-18" target="9ntAHNHlALG6fC8blTvz-3">
          <mxGeometry width="50" height="50" relative="1" as="geometry">
            <mxPoint x="162.5" y="660" as="sourcePoint" />
            <mxPoint x="197" y="690" as="targetPoint" />
          </mxGeometry>
        </mxCell>
        <mxCell id="FBlnzUpI8ujvTvfXLXgQ-6" value="" style="endArrow=none;html=1;rounded=0;entryX=0.75;entryY=0;entryDx=0;entryDy=0;exitX=0.5;exitY=1;exitDx=0;exitDy=0;" edge="1" parent="1" source="9ntAHNHlALG6fC8blTvz-24" target="9ntAHNHlALG6fC8blTvz-3">
          <mxGeometry width="50" height="50" relative="1" as="geometry">
            <mxPoint x="331" y="570" as="sourcePoint" />
            <mxPoint x="392.5" y="600" as="targetPoint" />
          </mxGeometry>
        </mxCell>
        <mxCell id="FBlnzUpI8ujvTvfXLXgQ-7" value="" style="endArrow=none;html=1;rounded=0;entryX=0.197;entryY=-0.029;entryDx=0;entryDy=0;entryPerimeter=0;exitX=0.564;exitY=1;exitDx=0;exitDy=0;exitPerimeter=0;" edge="1" parent="1" source="9ntAHNHlALG6fC8blTvz-11" target="9ntAHNHlALG6fC8blTvz-2">
          <mxGeometry width="50" height="50" relative="1" as="geometry">
            <mxPoint x="750" y="580" as="sourcePoint" />
            <mxPoint x="750" y="600" as="targetPoint" />
          </mxGeometry>
        </mxCell>
        <mxCell id="FBlnzUpI8ujvTvfXLXgQ-8" value="" style="endArrow=none;html=1;rounded=0;entryX=0.597;entryY=0;entryDx=0;entryDy=0;entryPerimeter=0;exitX=1;exitY=1;exitDx=0;exitDy=0;" edge="1" parent="1" target="9ntAHNHlALG6fC8blTvz-2">
          <mxGeometry width="50" height="50" relative="1" as="geometry">
            <mxPoint x="900.5" y="558" as="sourcePoint" />
            <mxPoint x="927.5" y="595" as="targetPoint" />
          </mxGeometry>
        </mxCell>
        <mxCell id="FBlnzUpI8ujvTvfXLXgQ-9" value="" style="endArrow=none;html=1;rounded=0;entryX=0.197;entryY=-0.029;entryDx=0;entryDy=0;entryPerimeter=0;exitX=0.203;exitY=1.014;exitDx=0;exitDy=0;exitPerimeter=0;" edge="1" parent="1" source="9ntAHNHlALG6fC8blTvz-2">
          <mxGeometry width="50" height="50" relative="1" as="geometry">
            <mxPoint x="761.5" y="675" as="sourcePoint" />
            <mxPoint x="788.5" y="712" as="targetPoint" />
          </mxGeometry>
        </mxCell>
        <mxCell id="FBlnzUpI8ujvTvfXLXgQ-10" value="" style="endArrow=none;html=1;rounded=0;entryX=0.197;entryY=-0.029;entryDx=0;entryDy=0;entryPerimeter=0;exitX=1;exitY=1;exitDx=0;exitDy=0;" edge="1" parent="1">
          <mxGeometry width="50" height="50" relative="1" as="geometry">
            <mxPoint x="890" y="670" as="sourcePoint" />
            <mxPoint x="917" y="707" as="targetPoint" />
          </mxGeometry>
        </mxCell>
        <mxCell id="FBlnzUpI8ujvTvfXLXgQ-11" value="" style="endArrow=none;html=1;rounded=0;entryX=1;entryY=0.5;entryDx=0;entryDy=0;exitX=0;exitY=1;exitDx=0;exitDy=0;" edge="1" parent="1" source="9ntAHNHlALG6fC8blTvz-16" target="9ntAHNHlALG6fC8blTvz-2">
          <mxGeometry width="50" height="50" relative="1" as="geometry">
            <mxPoint x="1034" y="620" as="sourcePoint" />
            <mxPoint x="1061" y="657" as="targetPoint" />
          </mxGeometry>
        </mxCell>
        <mxCell id="FBlnzUpI8ujvTvfXLXgQ-12" value="" style="endArrow=none;html=1;rounded=0;exitX=0.5;exitY=0;exitDx=0;exitDy=0;entryX=0.5;entryY=1;entryDx=0;entryDy=0;" edge="1" parent="1" source="9ntAHNHlALG6fC8blTvz-3" target="FBlnzUpI8ujvTvfXLXgQ-13">
          <mxGeometry width="50" height="50" relative="1" as="geometry">
            <mxPoint x="189.25" y="420" as="sourcePoint" />
            <mxPoint x="276.75" y="460" as="targetPoint" />
          </mxGeometry>
        </mxCell>
        <mxCell id="FBlnzUpI8ujvTvfXLXgQ-13" value="&lt;font style=&quot;font-size: 14px;&quot;&gt;participates&lt;/font&gt;" style="rhombus;whiteSpace=wrap;html=1;" vertex="1" parent="1">
          <mxGeometry x="219.25" y="380" width="106.5" height="90" as="geometry" />
        </mxCell>
        <mxCell id="FBlnzUpI8ujvTvfXLXgQ-14" value="" style="endArrow=none;html=1;rounded=0;exitX=0.5;exitY=0;exitDx=0;exitDy=0;entryX=0.355;entryY=1;entryDx=0;entryDy=0;entryPerimeter=0;" edge="1" parent="1" source="FBlnzUpI8ujvTvfXLXgQ-13" target="9ntAHNHlALG6fC8blTvz-1">
          <mxGeometry width="50" height="50" relative="1" as="geometry">
            <mxPoint x="289.5" y="335" as="sourcePoint" />
            <mxPoint x="300.5" y="245" as="targetPoint" />
          </mxGeometry>
        </mxCell>
        <mxCell id="FBlnzUpI8ujvTvfXLXgQ-16" value="&lt;font style=&quot;font-size: 14px;&quot;&gt;City&lt;/font&gt;" style="ellipse;whiteSpace=wrap;html=1;" vertex="1" parent="1">
          <mxGeometry x="70" y="165" width="110" height="60" as="geometry" />
        </mxCell>
        <mxCell id="FBlnzUpI8ujvTvfXLXgQ-18" value="&lt;font style=&quot;font-size: 14px;&quot;&gt;[1, *&lt;/font&gt;&lt;span style=&quot;font-size: 14px; background-color: initial;&quot;&gt;]&lt;/span&gt;" style="text;html=1;align=center;verticalAlign=middle;resizable=0;points=[];autosize=1;strokeColor=none;fillColor=none;" vertex="1" parent="1">
          <mxGeometry x="270" y="565" width="50" height="30" as="geometry" />
        </mxCell>
        <mxCell id="FBlnzUpI8ujvTvfXLXgQ-19" value="&lt;font style=&quot;font-size: 14px;&quot;&gt;[0, *]&lt;/font&gt;" style="text;html=1;align=center;verticalAlign=middle;resizable=0;points=[];autosize=1;strokeColor=none;fillColor=none;" vertex="1" parent="1">
          <mxGeometry x="275.75" y="240" width="50" height="30" as="geometry" />
        </mxCell>
        <mxCell id="FBlnzUpI8ujvTvfXLXgQ-20" value="&lt;font style=&quot;font-size: 14px;&quot;&gt;Team_ID (PK)&lt;/font&gt;&lt;span style=&quot;color: rgba(0, 0, 0, 0); font-family: monospace; font-size: 0px; text-align: start; text-wrap-mode: nowrap;&quot;&gt;%3CmxGraphModel%3E%3Croot%3E%3CmxCell%20id%3D%220%22%2F%3E%3CmxCell%20id%3D%221%22%20parent%3D%220%22%2F%3E%3CmxCell%20id%3D%222%22%20value%3D%22%26lt%3Bfont%20style%3D%26quot%3Bfont-size%3A%2014px%3B%26quot%3B%26gt%3BSport%20(FK)%26lt%3B%2Ffont%26gt%3B%22%20style%3D%22ellipse%3BwhiteSpace%3Dwrap%3Bhtml%3D1%3B%22%20vertex%3D%221%22%20parent%3D%221%22%3E%3CmxGeometry%20x%3D%22360%22%20y%3D%22250%22%20width%3D%22110%22%20height%3D%2260%22%20as%3D%22geometry%22%2F%3E%3C%2FmxCell%3E%3C%2Froot%3E%3C%2FmxGraphModel%3E&lt;/span&gt;" style="ellipse;whiteSpace=wrap;html=1;" vertex="1" parent="1">
          <mxGeometry x="360" y="390" width="110" height="60" as="geometry" />
        </mxCell>
        <mxCell id="FBlnzUpI8ujvTvfXLXgQ-21" value="&lt;span style=&quot;font-size: 14px;&quot;&gt;Event_ID (PK)&lt;/span&gt;" style="ellipse;whiteSpace=wrap;html=1;" vertex="1" parent="1">
          <mxGeometry x="80" y="380" width="110" height="60" as="geometry" />
        </mxCell>
        <mxCell id="FBlnzUpI8ujvTvfXLXgQ-22" value="&lt;font style=&quot;font-size: 14px;&quot;&gt;[1, 1&lt;/font&gt;&lt;span style=&quot;font-size: 14px; background-color: initial;&quot;&gt;]&lt;/span&gt;" style="text;html=1;align=center;verticalAlign=middle;resizable=0;points=[];autosize=1;strokeColor=none;fillColor=none;" vertex="1" parent="1">
          <mxGeometry x="352.5" y="605" width="50" height="30" as="geometry" />
        </mxCell>
        <mxCell id="FBlnzUpI8ujvTvfXLXgQ-23" value="&lt;font style=&quot;font-size: 14px;&quot;&gt;[0, *&lt;/font&gt;&lt;span style=&quot;font-size: 14px; background-color: initial;&quot;&gt;]&lt;/span&gt;" style="text;html=1;align=center;verticalAlign=middle;resizable=0;points=[];autosize=1;strokeColor=none;fillColor=none;" vertex="1" parent="1">
          <mxGeometry x="740" y="605" width="50" height="30" as="geometry" />
        </mxCell>
        <mxCell id="FBlnzUpI8ujvTvfXLXgQ-24" value="" style="endArrow=none;html=1;rounded=0;entryX=0;entryY=0.5;entryDx=0;entryDy=0;exitX=0.973;exitY=0.667;exitDx=0;exitDy=0;exitPerimeter=0;" edge="1" parent="1" source="FBlnzUpI8ujvTvfXLXgQ-21" target="FBlnzUpI8ujvTvfXLXgQ-13">
          <mxGeometry width="50" height="50" relative="1" as="geometry">
            <mxPoint x="195.5" y="420" as="sourcePoint" />
            <mxPoint x="230" y="450" as="targetPoint" />
          </mxGeometry>
        </mxCell>
        <mxCell id="FBlnzUpI8ujvTvfXLXgQ-25" value="" style="endArrow=none;html=1;rounded=0;entryX=0;entryY=0.5;entryDx=0;entryDy=0;exitX=1;exitY=0.5;exitDx=0;exitDy=0;" edge="1" parent="1" source="FBlnzUpI8ujvTvfXLXgQ-13" target="FBlnzUpI8ujvTvfXLXgQ-20">
          <mxGeometry width="50" height="50" relative="1" as="geometry">
            <mxPoint x="320" y="422.5" as="sourcePoint" />
            <mxPoint x="352" y="427.5" as="targetPoint" />
          </mxGeometry>
        </mxCell>
        <mxCell id="FBlnzUpI8ujvTvfXLXgQ-27" value="" style="endArrow=none;html=1;rounded=0;entryX=0;entryY=0;entryDx=0;entryDy=0;exitX=0.75;exitY=1;exitDx=0;exitDy=0;" edge="1" parent="1" source="9ntAHNHlALG6fC8blTvz-1" target="9ntAHNHlALG6fC8blTvz-7">
          <mxGeometry width="50" height="50" relative="1" as="geometry">
            <mxPoint x="340" y="255" as="sourcePoint" />
            <mxPoint x="374" y="250" as="targetPoint" />
          </mxGeometry>
        </mxCell>
        <mxCell id="FBlnzUpI8ujvTvfXLXgQ-30" value="" style="endArrow=none;html=1;rounded=0;entryX=0;entryY=1;entryDx=0;entryDy=0;exitX=1;exitY=0;exitDx=0;exitDy=0;" edge="1" parent="1" source="9ntAHNHlALG6fC8blTvz-6" target="9ntAHNHlALG6fC8blTvz-1">
          <mxGeometry width="50" height="50" relative="1" as="geometry">
            <mxPoint x="222.5" y="275" as="sourcePoint" />
            <mxPoint x="256.5" y="270" as="targetPoint" />
          </mxGeometry>
        </mxCell>
        <mxCell id="FBlnzUpI8ujvTvfXLXgQ-31" value="" style="endArrow=none;html=1;rounded=0;entryX=0;entryY=0;entryDx=0;entryDy=0;exitX=0.705;exitY=0.983;exitDx=0;exitDy=0;fontStyle=1;exitPerimeter=0;" edge="1" parent="1" source="9ntAHNHlALG6fC8blTvz-5" target="9ntAHNHlALG6fC8blTvz-1">
          <mxGeometry width="50" height="50" relative="1" as="geometry">
            <mxPoint x="356" y="455" as="sourcePoint" />
            <mxPoint x="390" y="450" as="targetPoint" />
          </mxGeometry>
        </mxCell>
        <mxCell id="FBlnzUpI8ujvTvfXLXgQ-32" value="" style="endArrow=none;html=1;rounded=0;entryX=0;entryY=0.5;entryDx=0;entryDy=0;exitX=1;exitY=0.5;exitDx=0;exitDy=0;" edge="1" parent="1" source="FBlnzUpI8ujvTvfXLXgQ-16" target="9ntAHNHlALG6fC8blTvz-1">
          <mxGeometry width="50" height="50" relative="1" as="geometry">
            <mxPoint x="185.25" y="197.5" as="sourcePoint" />
            <mxPoint x="219.25" y="192.5" as="targetPoint" />
          </mxGeometry>
        </mxCell>
        <mxCell id="FBlnzUpI8ujvTvfXLXgQ-33" value="" style="endArrow=none;html=1;rounded=0;entryX=0.5;entryY=1;entryDx=0;entryDy=0;exitX=0.75;exitY=0;exitDx=0;exitDy=0;" edge="1" parent="1" source="9ntAHNHlALG6fC8blTvz-1" target="9ntAHNHlALG6fC8blTvz-22">
          <mxGeometry width="50" height="50" relative="1" as="geometry">
            <mxPoint x="376" y="475" as="sourcePoint" />
            <mxPoint x="410" y="470" as="targetPoint" />
          </mxGeometry>
        </mxCell>
        <mxCell id="FBlnzUpI8ujvTvfXLXgQ-34" value="" style="endArrow=none;html=1;rounded=0;entryX=0.5;entryY=0;entryDx=0;entryDy=0;exitX=0.5;exitY=1;exitDx=0;exitDy=0;" edge="1" parent="1" source="9ntAHNHlALG6fC8blTvz-8" target="9ntAHNHlALG6fC8blTvz-9">
          <mxGeometry width="50" height="50" relative="1" as="geometry">
            <mxPoint x="386" y="485" as="sourcePoint" />
            <mxPoint x="420" y="480" as="targetPoint" />
          </mxGeometry>
        </mxCell>
        <mxCell id="FBlnzUpI8ujvTvfXLXgQ-36" value="&lt;font style=&quot;font-size: 14px;&quot;&gt;Venue (FK)&lt;/font&gt;" style="ellipse;whiteSpace=wrap;html=1;" vertex="1" parent="1">
          <mxGeometry x="300" y="710" width="110" height="60" as="geometry" />
        </mxCell>
        <mxCell id="FBlnzUpI8ujvTvfXLXgQ-37" value="" style="endArrow=none;html=1;rounded=0;exitX=0.75;exitY=1;exitDx=0;exitDy=0;entryX=0.5;entryY=0;entryDx=0;entryDy=0;" edge="1" parent="1" source="9ntAHNHlALG6fC8blTvz-3" target="FBlnzUpI8ujvTvfXLXgQ-36">
          <mxGeometry width="50" height="50" relative="1" as="geometry">
            <mxPoint x="246" y="680" as="sourcePoint" />
            <mxPoint x="225" y="720" as="targetPoint" />
          </mxGeometry>
        </mxCell>
      </root>
    </mxGraphModel>
  </diagram>
</mxfile>
